# Wavefront OBJ file automatically generated by Tiled2Unity

# Vertices (Count = 36)
v 0 -0.8000001 0
v -0.8000001 -0.8000001 0
v -0.8000001 0 0
v 0 0 0
v -1.6 -0.8000001 0
v -1.6 0 0
v -2.4 -0.8000001 0
v -2.4 0 0
v -3.2 -0.8000001 0
v -3.2 0 0
v -4 -0.8000001 0
v -4 0 0
v 0 -1.6 0
v -0.8000001 -1.6 0
v -1.6 -1.6 0
v -2.4 -1.6 0
v -3.2 -1.6 0
v -4 -1.6 0
v 0 -2.4 0
v -0.8000001 -2.4 0
v -1.6 -2.4 0
v -2.4 -2.4 0
v -3.2 -2.4 0
v -4 -2.4 0
v 0 -3.2 0
v -0.8000001 -3.2 0
v -1.6 -3.2 0
v -2.4 -3.2 0
v -3.2 -3.2 0
v -4 -3.2 0
v 0 -4 0
v -0.8000001 -4 0
v -1.6 -4 0
v -2.4 -4 0
v -3.2 -4 0
v -4 -4 0

# Texture cooridinates (Count = 36)
vt 3.854852E-05 0.684249
vt 0.3157509 0.684249
vt 0.3157509 0.9999614
vt 3.854852E-05 0.9999614
vt 0.3421438 0.684249
vt 0.6578562 0.684249
vt 0.6578562 0.9999614
vt 0.3421438 0.9999614
vt 0.6842491 0.684249
vt 0.9999614 0.684249
vt 0.9999614 0.9999614
vt 0.6842491 0.9999614
vt 3.854852E-05 0.3421438
vt 0.3157509 0.3421438
vt 0.3157509 0.6578562
vt 3.854852E-05 0.6578562
vt 0.3421438 0.3421438
vt 0.6578562 0.3421438
vt 0.6578562 0.6578562
vt 0.3421438 0.6578562
vt 0.6842491 0.3421438
vt 0.9999614 0.3421438
vt 0.9999614 0.6578562
vt 0.6842491 0.6578562
vt 3.854852E-05 3.856421E-05
vt 0.3157509 3.856421E-05
vt 0.3157509 0.3157509
vt 3.854852E-05 0.3157509
vt 0.3421438 3.856421E-05
vt 0.6578562 3.856421E-05
vt 0.6578562 0.3157509
vt 0.3421438 0.3157509
vt 0.6842491 3.856421E-05
vt 0.9999614 3.856421E-05
vt 0.9999614 0.3157509
vt 0.6842491 0.3157509

# Normal
vn 0 0 -1

# Groups (Count = 1)

g mesh_0001
f 1/1/1 2/2/1 3/3/1 4/4/1
f 2/5/1 5/6/1 6/7/1 3/8/1
f 5/5/1 7/6/1 8/7/1 6/8/1
f 7/5/1 9/6/1 10/7/1 8/8/1
f 9/9/1 11/10/1 12/11/1 10/12/1
f 13/13/1 14/14/1 2/15/1 1/16/1
f 14/17/1 15/18/1 5/19/1 2/20/1
f 15/17/1 16/18/1 7/19/1 5/20/1
f 16/17/1 17/18/1 9/19/1 7/20/1
f 17/21/1 18/22/1 11/23/1 9/24/1
f 19/13/1 20/14/1 14/15/1 13/16/1
f 20/17/1 21/18/1 15/19/1 14/20/1
f 21/17/1 22/18/1 16/19/1 15/20/1
f 22/17/1 23/18/1 17/19/1 16/20/1
f 23/21/1 24/22/1 18/23/1 17/24/1
f 25/13/1 26/14/1 20/15/1 19/16/1
f 26/17/1 27/18/1 21/19/1 20/20/1
f 27/17/1 28/18/1 22/19/1 21/20/1
f 28/17/1 29/18/1 23/19/1 22/20/1
f 29/21/1 30/22/1 24/23/1 23/24/1
f 31/25/1 32/26/1 26/27/1 25/28/1
f 32/29/1 33/30/1 27/31/1 26/32/1
f 33/29/1 34/30/1 28/31/1 27/32/1
f 34/29/1 35/30/1 29/31/1 28/32/1
f 35/33/1 36/34/1 30/35/1 29/36/1

